<?xml version="1.0" encoding="utf-8"?>
<!-- Generator: Adobe Illustrator 16.0.0, SVG Export Plug-In . SVG Version: 6.00 Build 0)  -->
<!DOCTYPE svg PUBLIC "-//W3C//DTD SVG 1.1//EN" "http://www.w3.org/Graphics/SVG/1.1/DTD/svg11.dtd">
<svg version="1.1" id="Layer_1" xmlns="http://www.w3.org/2000/svg" xmlns:xlink="http://www.w3.org/1999/xlink" x="0px" y="0px"
	 width="600px" height="600px" viewBox="0 0 600 600" enable-background="new 0 0 600 600" xml:space="preserve">
<g>
	<g>
		<polygon fill="#F5F5F5" points="270.714,324.904 270.714,319.094 281.406,301.436 293.255,253.566 322.303,228.704 
			324.629,214.528 336.013,201.513 343.215,185.391 359.068,182.71 369.008,215.225 375.049,218.478 377.606,231.49 
			399.219,256.356 408.516,271.225 415.021,294.466 445.459,322.578 446.621,324.904 		"/>
		<polygon fill="#E3E3E2" points="384.877,302.082 363.135,287.557 363.135,271.595 343.562,242.824 343.215,185.391 
			336.013,201.513 324.629,214.528 322.303,228.704 293.255,253.566 281.406,301.436 270.714,319.094 270.714,324.904 
			384.877,324.904 		"/>
		<polygon fill="#F5F5F5" points="126.814,324.904 126.814,317.584 140.286,295.32 155.226,234.983 191.841,203.641 194.769,185.77 
			209.123,169.368 218.202,131.291 238.187,127.913 250.717,186.651 258.333,190.751 261.552,207.153 288.793,238.495 
			300.511,257.243 308.712,286.535 347.083,321.975 348.547,324.904 		"/>
		<polygon fill="#E3E3E2" points="270.714,296.137 243.306,277.826 243.306,257.706 218.638,221.44 218.638,155.261 
			218.202,131.291 209.123,169.368 194.769,185.77 191.841,203.641 155.226,234.983 140.286,295.32 126.814,317.584 
			126.814,324.904 270.714,324.904 		"/>
		<path fill="#FFFFFF" d="M458.862,323.567c0.273-3.997,0.456-8.015,0.456-12.075H107.617c0,97.116,78.729,175.843,175.853,175.843
			c54.04,0,102.359-24.393,134.616-62.748c6.142,2.409,12.805,3.778,19.791,3.778c30.059,0,54.508-24.455,54.508-54.502
			C492.384,351.239,478.526,331.801,458.862,323.567 M437.876,398.544c-0.538,0-1.065-0.051-1.593-0.077
			c7.675-13.458,13.658-28.003,17.578-43.384c5.312,4.538,8.7,11.267,8.7,18.78C462.562,387.47,451.487,398.544,437.876,398.544"/>
		<path fill="#E3E3E2" d="M159.596,322.058H118.52c5.47,86.229,77.363,154.712,164.953,154.712c6.909,0,13.752-0.471,20.522-1.325
			C225.959,465.727,164.625,401.43,159.596,322.058"/>
	</g>
	<g>
		<path fill="#FFFFFF" d="M216,511.735v0.447c0,0.474-0.187,0.631-0.629,0.631h-2.031c-0.469,0-0.656-0.157-0.656-0.631v-0.185
			c0-0.974-0.528-1.394-2.024-1.394c-1.503,0-2.024,0.42-2.024,1.394v5.232c0,0.975,0.521,1.42,2.024,1.42
			c1.497,0,2.024-0.445,2.024-1.42v-0.396c0-0.47,0.187-0.652,0.656-0.652h2.031c0.443,0,0.629,0.183,0.629,0.652v0.662
			c0,2.366-1.581,3.892-5.417,3.892c-3.87,0-5.398-1.525-5.398-3.892v-5.762c0-2.343,1.555-3.869,5.424-3.869
			C214.445,507.866,216,509.393,216,511.735z"/>
		<path fill="#FFFFFF" d="M218.424,511.659c0-2.344,1.549-3.793,5.314-3.793c3.837,0,5.29,1.449,5.29,3.793v8.832
			c0,0.476-0.186,0.685-0.637,0.685h-1.973c-0.47,0-0.578-0.209-0.63-0.685l-0.051-0.552c-0.764,0.634-2.056,1.449-3.896,1.449
			c-2.577,0-3.791-1.553-3.791-3.29v-1.18c0-1.762,1.344-3.314,3.946-3.314h3.632v-1.683c0-0.949-0.444-1.475-1.974-1.475
			c-1.497,0-2.024,0.42-2.024,1.369v0.182c0,0.473-0.186,0.658-0.629,0.658h-1.948c-0.476,0-0.629-0.186-0.629-0.658V511.659z
			 M225.629,517.52v-1.495h-2.944c-1.029,0-1.266,0.498-1.266,1.184v0.417c0,0.788,0.526,1.025,1.317,1.025
			C223.944,518.65,225.025,517.966,225.629,517.52z"/>
		<path fill="#FFFFFF" d="M233,508.129v-1.628c0-2.344,1.786-3.871,5.656-3.871h0.238c0.449,0,0.656,0.159,0.656,0.635v1.522
			c0,0.476-0.207,0.685-0.656,0.685h-0.238c-1.498,0-2.186,0.449-2.186,1.424v1.233h2.186c0.449,0,0.656,0.16,0.656,0.607v1.474
			c0,0.474-0.207,0.657-0.656,0.657h-2.186v9.624c0,0.476-0.153,0.685-0.629,0.685h-2.186c-0.475,0-0.655-0.209-0.655-0.685v-9.624
			h-1.421c-0.449,0-0.636-0.184-0.636-0.657v-1.315c0-0.447,0.187-0.579,0.636-0.633l1.345-0.133H233z"/>
		<path fill="#FFFFFF" d="M251.44,514.788c0,0.42-0.162,0.604-0.58,0.604h-6.729v1.943c0,0.92,0.495,1.447,2.051,1.447
			c1.549,0,2.049-0.527,2.049-1.447v-0.128c0-0.446,0.181-0.663,0.656-0.663h1.844c0.444,0,0.656,0.217,0.656,0.663v0.289
			c0,2.366-1.369,3.892-5.231,3.892c-3.871,0-5.394-1.525-5.394-3.892v-5.762c0-2.343,1.55-3.869,5.419-3.869
			c3.837,0,5.257,1.526,5.257,3.869V514.788z M244.131,513.078h4.101v-1.156c0-0.923-0.578-1.449-2.049-1.449
			c-1.497,0-2.051,0.526-2.051,1.449V513.078z"/>
		<path fill="#FFFFFF" d="M256.838,508.077c0.476,0,0.604,0.185,0.63,0.634l0.058,0.63c0.726-0.604,2.076-1.475,4.203-1.475
			c2.422,0,3.817,1.475,3.817,3.527v9.098c0,0.476-0.187,0.685-0.663,0.685h-2.126c-0.476,0-0.689-0.209-0.689-0.685v-8.23
			c0-0.946-0.288-1.394-1.42-1.394c-1.317,0-2.494,0.762-3.046,1.183v8.441c0,0.476-0.16,0.685-0.604,0.685h-2.184
			c-0.477,0-0.656-0.209-0.656-0.685v-11.78c0-0.449,0.18-0.634,0.656-0.634H256.838z"/>
		<path fill="#FFFFFF" d="M268.517,511.659c0-2.344,1.555-3.793,5.314-3.793c3.844,0,5.291,1.449,5.291,3.793v8.832
			c0,0.476-0.187,0.685-0.631,0.685h-1.973c-0.475,0-0.578-0.209-0.63-0.685l-0.058-0.552c-0.757,0.634-2.049,1.449-3.894,1.449
			c-2.578,0-3.786-1.553-3.786-3.29v-1.18c0-1.762,1.343-3.314,3.946-3.314h3.632v-1.683c0-0.949-0.451-1.475-1.974-1.475
			c-1.497,0-2.024,0.42-2.024,1.369v0.182c0,0.473-0.187,0.658-0.636,0.658h-1.947c-0.469,0-0.63-0.186-0.63-0.658V511.659z
			 M275.729,517.52v-1.495h-2.951c-1.021,0-1.259,0.498-1.259,1.184v0.417c0,0.788,0.526,1.025,1.317,1.025
			C274.044,518.65,275.125,517.966,275.729,517.52z"/>
		<path fill="#FFFFFF" d="M284.776,508.077c0.477,0,0.611,0.185,0.636,0.634l0.026,0.63c0.708-0.604,1.948-1.475,4.075-1.475
			c1.632,0,2.814,0.685,3.368,1.764c0.636-0.579,1.921-1.764,4.39-1.764c2.422,0,3.818,1.475,3.818,3.527v9.098
			c0,0.476-0.187,0.685-0.631,0.685H298.3c-0.476,0-0.655-0.209-0.655-0.685v-8.23c0-0.946-0.316-1.394-1.422-1.394
			c-1.394,0-2.525,0.843-2.892,1.157v8.467c0,0.476-0.186,0.685-0.655,0.685h-2.134c-0.477,0-0.681-0.209-0.681-0.685v-8.23
			c0-0.946-0.29-1.394-1.42-1.394c-1.317,0-2.397,0.736-2.898,1.183v8.441c0,0.476-0.155,0.685-0.604,0.685h-2.186
			c-0.475,0-0.656-0.209-0.656-0.685v-11.78c0-0.449,0.181-0.634,0.656-0.634H284.776z"/>
		<path fill="#FFFFFF" d="M303.809,511.735c0-2.343,1.813-3.869,5.682-3.869c3.868,0,5.675,1.526,5.675,3.869v5.762
			c0,2.366-1.807,3.892-5.675,3.892c-3.869,0-5.682-1.525-5.682-3.892V511.735z M311.727,512.024c0-0.975-0.765-1.42-2.236-1.42
			s-2.237,0.445-2.237,1.42v5.184c0,0.997,0.766,1.442,2.237,1.442s2.236-0.445,2.236-1.442V512.024z"/>
		<path fill="#FFFFFF" d="M320.699,508.077c0.475,0,0.604,0.185,0.631,0.634l0.05,0.63c0.732-0.604,2.082-1.475,4.211-1.475
			c2.414,0,3.81,1.475,3.81,3.527v9.098c0,0.476-0.18,0.685-0.655,0.685h-2.134c-0.469,0-0.682-0.209-0.682-0.685v-8.23
			c0-0.946-0.289-1.394-1.42-1.394c-1.317,0-2.494,0.762-3.047,1.183v8.441c0,0.476-0.16,0.685-0.604,0.685h-2.186
			c-0.476,0-0.662-0.209-0.662-0.685v-11.78c0-0.449,0.187-0.634,0.662-0.634H320.699z"/>
		<path fill="#FFFFFF" d="M338.982,508.129c0.445,0,0.658,0.16,0.658,0.607v1.474c0,0.474-0.213,0.657-0.658,0.657h-2.396v6.052
			c0,0.971,0.631,1.417,2.109,1.417h0.577c0.47,0,0.656,0.183,0.656,0.658v1.522c0,0.478-0.187,0.659-0.656,0.659h-1.104
			c-3.87,0-5.052-1.313-5.052-3.894v-6.415h-1.292c-0.45,0-0.631-0.184-0.631-0.657v-1.315c0-0.447,0.181-0.579,0.631-0.633
			l1.208-0.133h0.084v-2.525c0-0.472,0.18-0.656,0.654-0.656h2.187c0.476,0,0.629,0.185,0.629,0.656v2.525H338.982z"/>
		<path fill="#FFFFFF" d="M341.926,511.659c0-2.344,1.558-3.793,5.318-3.793c3.842,0,5.288,1.449,5.288,3.793v8.832
			c0,0.476-0.18,0.685-0.631,0.685h-1.973c-0.474,0-0.577-0.209-0.629-0.685l-0.059-0.552c-0.757,0.634-2.051,1.449-3.894,1.449
			c-2.579,0-3.786-1.553-3.786-3.29v-1.18c0-1.762,1.343-3.314,3.945-3.314h3.631v-1.683c0-0.949-0.449-1.475-1.973-1.475
			c-1.496,0-2.024,0.42-2.024,1.369v0.182c0,0.473-0.187,0.658-0.635,0.658h-1.948c-0.47,0-0.632-0.186-0.632-0.658V511.659z
			 M349.138,517.52v-1.495h-2.949c-1.022,0-1.259,0.498-1.259,1.184v0.417c0,0.788,0.526,1.025,1.316,1.025
			C347.455,518.65,348.535,517.966,349.138,517.52z"/>
		<path fill="#FFFFFF" d="M358.188,508.077c0.477,0,0.611,0.185,0.636,0.634l0.052,0.63c0.74-0.604,2.077-1.475,4.211-1.475
			c2.423,0,3.816,1.475,3.816,3.527v9.098c0,0.476-0.187,0.685-0.662,0.685h-2.126c-0.476,0-0.688-0.209-0.688-0.685v-8.23
			c0-0.946-0.289-1.394-1.419-1.394c-1.319,0-2.5,0.762-3.055,1.183v8.441c0,0.476-0.153,0.685-0.604,0.685h-2.185
			c-0.478,0-0.656-0.209-0.656-0.685v-11.78c0-0.449,0.179-0.634,0.656-0.634H358.188z"/>
		<path fill="#FFFFFF" d="M373.292,509.235c0.765-0.579,2.107-1.369,4.126-1.369c2.423,0,3.816,1.475,3.816,3.527v9.098
			c0,0.476-0.185,0.685-0.654,0.685h-2.134c-0.47,0-0.681-0.209-0.681-0.685v-8.23c0-0.946-0.29-1.394-1.422-1.394
			c-1.311,0-2.499,0.762-3.052,1.183v8.441c0,0.476-0.154,0.685-0.604,0.685h-2.179c-0.475,0-0.663-0.209-0.663-0.685v-17.019
			c0-0.473,0.188-0.684,0.663-0.684h2.179c0.45,0,0.604,0.211,0.604,0.684V509.235z"/>
		<path fill="#FFFFFF" d="M384.218,511.659c0-2.344,1.549-3.793,5.31-3.793c3.843,0,5.29,1.449,5.29,3.793v8.832
			c0,0.476-0.188,0.685-0.638,0.685h-1.974c-0.468,0-0.578-0.209-0.628-0.685l-0.052-0.552c-0.766,0.634-2.051,1.449-3.89,1.449
			c-2.577,0-3.791-1.553-3.791-3.29v-1.18c0-1.762,1.343-3.314,3.944-3.314h3.632v-1.683c0-0.949-0.45-1.475-1.971-1.475
			c-1.5,0-2.032,0.42-2.032,1.369v0.182c0,0.473-0.181,0.658-0.624,0.658h-1.947c-0.475,0-0.63-0.186-0.63-0.658V511.659z
			 M391.422,517.52v-1.495h-2.943c-1.027,0-1.266,0.498-1.266,1.184v0.417c0,0.788,0.526,1.025,1.311,1.025
			C389.738,518.65,390.813,517.966,391.422,517.52z"/>
		<g>
			<path fill="#FFFFFF" d="M330.84,538.08c0,0.243-0.082,0.328-0.302,0.328h-0.906c-0.231,0-0.32-0.085-0.32-0.328v-1.678
				c0-0.216,0.089-0.327,0.32-0.327h0.906c0.22,0,0.302,0.111,0.302,0.327V538.08z"/>
			<path fill="#FFFFFF" d="M341.78,530.362v0.41c0,0.215-0.09,0.321-0.322,0.321h-0.797c-0.237,0-0.327-0.106-0.327-0.321v-0.327
				c0-0.99-0.534-1.636-2.456-1.636c-1.921,0-2.461,0.646-2.461,1.636v5.241c0,1.015,0.54,1.663,2.461,1.663
				c1.922,0,2.456-0.648,2.456-1.663v-0.473c0-0.238,0.09-0.322,0.327-0.322h0.797c0.232,0,0.322,0.084,0.322,0.322v0.584
				c0,1.662-0.99,2.783-3.947,2.783c-2.956,0-3.901-1.121-3.901-2.783v-5.436c0-1.667,0.964-2.783,3.921-2.783
				S341.78,528.695,341.78,530.362z"/>
			<path fill="#FFFFFF" d="M344.267,530.362c0-1.667,1.099-2.783,4.049-2.783c2.957,0,4.082,1.116,4.082,2.783v5.436
				c0,1.662-1.125,2.783-4.082,2.783c-2.95,0-4.049-1.121-4.049-2.783V530.362z M350.906,530.468c0-1.013-0.668-1.658-2.591-1.658
				c-1.896,0-2.563,0.646-2.563,1.658v5.219c0,1.015,0.668,1.663,2.563,1.663c1.923,0,2.591-0.648,2.591-1.663V530.468z"/>
			<path fill="#FFFFFF" d="M356.672,527.752c0.237,0,0.32,0.102,0.32,0.321l0.026,0.798c0.579-0.493,1.748-1.292,3.58-1.292
				c1.446,0,2.352,0.58,2.737,1.467c0.54-0.453,1.703-1.467,3.773-1.467c2.004,0,3.001,1.116,3.001,2.649v7.852
				c0,0.218-0.109,0.328-0.327,0.328h-0.861c-0.22,0-0.322-0.11-0.322-0.328v-7.524c0-0.973-0.514-1.643-1.901-1.643
				c-1.659,0-2.738,0.863-3.144,1.252c0.021,0.112,0.021,0.261,0.021,0.391v7.524c0,0.218-0.092,0.328-0.303,0.328h-0.868
				c-0.212,0-0.32-0.11-0.32-0.328v-7.524c0-0.973-0.515-1.643-1.896-1.643c-1.595,0-2.674,0.82-3.13,1.21v7.957
				c0,0.218-0.091,0.328-0.304,0.328h-0.859c-0.238,0-0.322-0.11-0.322-0.328v-10.007c0-0.22,0.084-0.321,0.322-0.321H356.672z"/>
			<path fill="#FFFFFF" d="M374.834,538.08c0,0.243-0.084,0.328-0.295,0.328h-0.912c-0.238,0-0.322-0.085-0.322-0.328v-1.678
				c0-0.216,0.084-0.327,0.322-0.327h0.912c0.211,0,0.295,0.111,0.295,0.327V538.08z"/>
			<path fill="#FFFFFF" d="M378.485,538.408c-0.237,0-0.328-0.11-0.328-0.328v-14.429c0-0.216,0.091-0.322,0.328-0.322h0.862
				c0.218,0,0.3,0.106,0.3,0.322v5.199c0.624-0.473,1.839-1.271,3.671-1.271c2.043,0,2.976,1.116,2.976,2.759v5.479
				c0,1.643-0.933,2.764-2.976,2.764c-1.856,0-3.084-0.801-3.689-1.294l-0.046,0.793c-0.018,0.218-0.082,0.328-0.327,0.328H378.485z
				 M384.802,530.556c0-0.886-0.493-1.622-1.895-1.622c-1.621,0-2.758,0.843-3.26,1.231v5.848c0.502,0.366,1.639,1.207,3.26,1.207
				c1.401,0,1.895-0.733,1.895-1.618V530.556z"/>
			<path fill="#FFFFFF" d="M394.817,527.902v0.711c0,0.215-0.13,0.32-0.341,0.32c-1.626,0.067-3.002,1.017-3.522,1.447v7.699
				c0,0.218-0.084,0.328-0.303,0.328h-0.861c-0.236,0-0.321-0.11-0.321-0.328v-10.007c0-0.22,0.085-0.321,0.321-0.321h0.777
				c0.238,0,0.303,0.102,0.321,0.321l0.065,1.058c0.611-0.561,1.921-1.552,3.522-1.552
				C394.688,527.579,394.817,527.688,394.817,527.902z"/>
		</g>
	</g>
</g>
<g>
	<path fill="#FFFFFF" d="M217.491,66.434c-0.322,0-0.445-0.149-0.445-0.496v-15.85c0-0.347,0.123-0.495,0.445-0.495h8.47
		c0.322,0,0.471,0.122,0.471,0.47v1.114c0,0.346-0.148,0.47-0.471,0.47h-6.514v5.004h6.067c0.348,0,0.496,0.124,0.496,0.47v1.064
		c0,0.323-0.148,0.471-0.496,0.471h-6.067v5.721h6.786c0.322,0,0.471,0.099,0.471,0.446v1.14c0,0.346-0.148,0.47-0.471,0.47H217.491
		z"/>
	<path fill="#FFFFFF" d="M231.28,54.151c0.347,0,0.445,0.146,0.471,0.47l0.049,0.792c0.669-0.569,1.907-1.462,3.963-1.462
		c1.61,0,2.675,0.67,3.17,1.685c0.595-0.52,1.882-1.685,4.235-1.685c2.303,0,3.517,1.339,3.517,3.171v8.816
		c0,0.346-0.149,0.496-0.471,0.496h-1.412c-0.347,0-0.495-0.149-0.495-0.496v-8.247c0-1.016-0.471-1.634-1.833-1.634
		c-1.635,0-2.773,0.867-3.244,1.288c0.024,0.099,0.024,0.223,0.024,0.322v8.271c0,0.346-0.123,0.496-0.445,0.496h-1.436
		c-0.322,0-0.471-0.149-0.471-0.496v-8.247c0-1.016-0.471-1.634-1.834-1.634c-1.584,0-2.724,0.841-3.219,1.264v8.618
		c0,0.346-0.124,0.496-0.445,0.496h-1.438c-0.346,0-0.471-0.149-0.471-0.496V54.621c0-0.323,0.125-0.47,0.471-0.47H231.28z"/>
	<path fill="#FFFFFF" d="M266.932,62.398c0,2.129-1.437,4.233-6.093,4.233c-4.655,0-6.091-2.104-6.091-4.233V53.63
		c0-2.13,1.436-4.235,6.091-4.235c4.656,0,6.093,2.104,6.093,4.235v1.139c0,0.521-0.173,0.743-0.692,0.743h-2.552
		c-0.52,0-0.718-0.222-0.718-0.743v-0.42c0-1.14-0.867-1.611-2.081-1.611s-2.056,0.472-2.056,1.611v7.33
		c0,1.139,0.842,1.61,2.056,1.61s2.081-0.472,2.081-1.61v-0.792c0-0.521,0.198-0.745,0.718-0.745h2.552
		c0.52,0,0.692,0.225,0.692,0.745V62.398z"/>
	<path fill="#FFFFFF" d="M268.782,57.716c0-2.352,1.933-3.863,5.672-3.863c3.74,0,5.673,1.511,5.673,3.863v5.053
		c0,2.352-1.933,3.862-5.673,3.862c-3.739,0-5.672-1.51-5.672-3.862V57.716z M276.163,58.039c0-0.818-0.693-1.09-1.709-1.09
		c-1.015,0-1.709,0.272-1.709,1.09v4.383c0,0.842,0.694,1.114,1.709,1.114c1.016,0,1.709-0.272,1.709-1.114V58.039z"/>
	<path fill="#FFFFFF" d="M285.443,54.052c0.521,0,0.67,0.197,0.719,0.717l0.049,0.421c0.694-0.569,1.882-1.337,3.84-1.337
		c2.254,0,3.641,1.437,3.641,3.443v8.395c0,0.521-0.199,0.743-0.718,0.743h-2.503c-0.52,0-0.742-0.223-0.742-0.743v-7.38
		c0-0.769-0.147-1.063-0.941-1.063c-0.966,0-1.98,0.618-2.477,0.989v7.455c0,0.521-0.174,0.743-0.693,0.743h-2.551
		c-0.52,0-0.718-0.223-0.718-0.743V54.769c0-0.521,0.198-0.717,0.718-0.717H285.443z"/>
	<path fill="#FFFFFF" d="M302.18,57.369c0-0.668-0.667-0.792-1.362-0.792c-0.692,0-1.337,0.124-1.337,0.792v0.124
		c0,0.373,0.271,0.57,0.521,0.67l3.467,1.238c1.658,0.594,2.475,1.487,2.475,2.675v1.188c0,1.633-1.435,3.367-5.223,3.367
		c-3.791,0-5.178-1.733-5.178-3.367v-0.521c0-0.468,0.174-0.667,0.669-0.667h2.279c0.496,0,0.669,0.199,0.669,0.667v0.348
		c0,0.669,0.815,0.792,1.561,0.792c0.741,0,1.583-0.124,1.583-0.792v-0.224c0-0.32-0.198-0.468-0.966-0.766l-3.492-1.337
		c-0.916-0.346-1.955-1.488-1.955-2.701v-0.693c0-1.633,1.188-3.516,4.953-3.516s4.953,1.883,4.953,3.516v0.347
		c0,0.496-0.173,0.693-0.692,0.693h-2.255c-0.496,0-0.669-0.197-0.669-0.693V57.369z"/>
	<path fill="#FFFFFF" d="M314.581,54.101c0.521,0,0.745,0.174,0.745,0.694v1.683c0,0.521-0.225,0.717-0.745,0.717h-2.006v4.929
		c0,0.816,0.569,1.089,1.587,1.089h0.596c0.517,0,0.741,0.225,0.741,0.742v1.76c0,0.521-0.225,0.719-0.741,0.719h-1.24
		c-3.739,0-4.904-1.262-4.904-3.862v-5.376h-1.089c-0.521,0-0.719-0.197-0.719-0.717v-1.511c0-0.521,0.198-0.644,0.719-0.719
		l1.063-0.148h0.025v-2.254c0-0.519,0.199-0.742,0.719-0.742h2.551c0.52,0,0.692,0.223,0.692,0.742v2.254H314.581z"/>
	<path fill="#FFFFFF" d="M325.029,54.572v1.93c0,0.521-0.224,0.693-0.744,0.745c-1.757,0.171-2.82,0.889-3.341,1.361v7.083
		c0,0.521-0.175,0.743-0.695,0.743h-2.551c-0.521,0-0.716-0.223-0.716-0.743V54.769c0-0.521,0.195-0.717,0.716-0.717h2.378
		c0.521,0,0.669,0.197,0.719,0.717l0.074,0.693c0.596-0.693,1.659-1.609,3.416-1.609C324.806,53.853,325.029,54.052,325.029,54.572z
		"/>
	<path fill="#FFFFFF" d="M333.669,65.319c-0.645,0.546-1.76,1.312-3.688,1.312c-2.255,0-3.64-1.436-3.64-3.441v-8.395
		c0-0.52,0.195-0.743,0.716-0.743h2.501c0.521,0,0.744,0.223,0.744,0.743v7.378c0,0.768,0.146,1.065,0.94,1.065
		c0.94,0,1.857-0.594,2.328-0.964v-7.479c0-0.52,0.173-0.743,0.693-0.743h2.55c0.521,0,0.719,0.223,0.719,0.743v10.92
		c0,0.521-0.198,0.719-0.719,0.719h-2.377c-0.521,0-0.645-0.198-0.719-0.719L333.669,65.319z"/>
	<path fill="#FFFFFF" d="M346.02,67.4c1.389,0,2.205,0.644,2.205,2.081c0,1.485-0.816,2.177-2.205,2.177h-3.096
		c-0.521,0-0.742-0.197-0.742-0.717v-0.519c0-0.521,0.222-0.694,0.742-0.694h2.402c0.199,0,0.225-0.173,0.225-0.247
		c0-0.074-0.025-0.249-0.225-0.249h-2.003c-0.868,0-1.044-0.42-0.868-0.989l0.521-1.809c-2.229-0.47-3.221-1.809-3.221-3.666v-5.053
		c0-2.352,1.636-3.863,5.373-3.863c3.741,0,5.351,1.511,5.351,3.863v0.373c0,0.52-0.198,0.718-0.719,0.718h-2.352
		c-0.521,0-0.719-0.198-0.719-0.718v-0.075c0-0.818-0.445-1.064-1.486-1.064s-1.486,0.246-1.486,1.064v4.433
		c0,0.818,0.445,1.09,1.486,1.09s1.486-0.272,1.486-1.09v-0.297c0-0.519,0.198-0.719,0.719-0.719h2.352
		c0.521,0,0.719,0.2,0.719,0.719v0.62c0,2.254-1.513,3.714-4.928,3.84l-0.198,0.792H346.02z"/>
	<path fill="#FFFFFF" d="M352.428,57.594c0-2.354,1.613-3.741,5.252-3.741c3.741,0,5.228,1.386,5.228,3.741v8.097
		c0,0.521-0.198,0.743-0.719,0.743h-2.28c-0.543,0-0.642-0.223-0.716-0.743l-0.052-0.372c-0.718,0.595-1.857,1.312-3.467,1.312
		c-2.501,0-3.64-1.534-3.64-3.169v-1.063c0-1.685,1.388-3.196,3.962-3.196h3.021v-1.363c0-0.766-0.371-1.138-1.412-1.138
		s-1.486,0.248-1.486,1.015v0.174c0,0.519-0.198,0.719-0.719,0.719h-2.254c-0.518,0-0.719-0.2-0.719-0.719V57.594z M355.947,52.144
		l-0.026,0.1c-0.124,0.52-0.322,0.644-0.791,0.644h-1.313c-0.494,0-0.644-0.346-0.595-0.842l0.148-1.213
		c0.15-1.165,1.143-1.882,2.33-1.882c0.568,0,1.063,0.124,1.434,0.272l1.041,0.395c0.374,0.15,0.67,0.298,0.892,0.298
		c0.25,0,0.422-0.124,0.472-0.321l0.022-0.101c0.126-0.494,0.299-0.642,0.793-0.642h1.292c0.543,0,0.667,0.322,0.617,0.841
		l-0.101,1.115c-0.123,1.262-1.015,1.882-2.081,1.882c-0.84,0-1.236-0.1-1.708-0.249l-1.063-0.347
		c-0.42-0.148-0.67-0.272-0.892-0.272C356.194,51.822,355.996,51.946,355.947,52.144z M359.018,62.645v-0.818h-2.277
		c-0.719,0-0.843,0.396-0.843,0.768v0.324c0,0.569,0.472,0.642,0.843,0.642C357.583,63.561,358.447,63.04,359.018,62.645z"/>
	<path fill="#FFFFFF" d="M365.006,57.716c0-2.352,1.929-3.863,5.672-3.863c3.737,0,5.67,1.511,5.67,3.863v5.053
		c0,2.352-1.933,3.862-5.67,3.862c-3.743,0-5.672-1.51-5.672-3.862V57.716z M372.386,58.039c0-0.818-0.695-1.09-1.708-1.09
		c-1.018,0-1.71,0.272-1.71,1.09v4.383c0,0.842,0.692,1.114,1.71,1.114c1.013,0,1.708-0.272,1.708-1.114V58.039z"/>
	<path fill="#FFFFFF" d="M382.905,65.715c0,0.521-0.173,0.719-0.692,0.719h-2.677c-0.518,0-0.719-0.198-0.719-0.719v-2.054
		c0-0.521,0.201-0.743,0.719-0.743h2.677c0.52,0,0.692,0.222,0.692,0.743V65.715z M382.558,60.986
		c-0.05,0.519-0.173,0.742-0.692,0.742h-1.907c-0.521,0-0.669-0.223-0.719-0.742l-0.396-4.21v-6.439c0-0.519,0.199-0.742,0.72-0.742
		h2.698c0.521,0,0.693,0.223,0.693,0.742v6.439L382.558,60.986z"/>
</g>
</svg>
