<?xml version="1.0" encoding="utf-8"?>
<!-- Generator: Adobe Illustrator 16.0.0, SVG Export Plug-In . SVG Version: 6.00 Build 0)  -->
<!DOCTYPE svg PUBLIC "-//W3C//DTD SVG 1.1//EN" "http://www.w3.org/Graphics/SVG/1.1/DTD/svg11.dtd" [
	<!ENTITY ns_extend "http://ns.adobe.com/Extensibility/1.0/">
	<!ENTITY ns_ai "http://ns.adobe.com/AdobeIllustrator/10.0/">
	<!ENTITY ns_graphs "http://ns.adobe.com/Graphs/1.0/">
	<!ENTITY ns_vars "http://ns.adobe.com/Variables/1.0/">
	<!ENTITY ns_imrep "http://ns.adobe.com/ImageReplacement/1.0/">
	<!ENTITY ns_sfw "http://ns.adobe.com/SaveForWeb/1.0/">
	<!ENTITY ns_custom "http://ns.adobe.com/GenericCustomNamespace/1.0/">
	<!ENTITY ns_adobe_xpath "http://ns.adobe.com/XPath/1.0/">
]>
<svg version="1.1" id="Layer_1" xmlns:x="&ns_extend;" xmlns:i="&ns_ai;" xmlns:graph="&ns_graphs;"
	 xmlns="http://www.w3.org/2000/svg" xmlns:xlink="http://www.w3.org/1999/xlink" x="0px" y="0px" width="477.215px"
	 height="197.468px" viewBox="0 0 477.215 197.468" enable-background="new 0 0 477.215 197.468" xml:space="preserve">
<metadata>
	<sfw  xmlns="&ns_sfw;">
		<slices></slices>
		<sliceSourceBounds  height="164.97" width="387.275" y="-375.126" x="-108.406" bottomLeftOrigin="true"></sliceSourceBounds>
	</sfw>
</metadata>
<g>
	<path fill="#1D1D1B" d="M334.486,149.354c-1.307,0-2.201,0.568-2.63,0.938l-0.031-0.584c-0.015-0.155-0.062-0.232-0.231-0.232
		h-0.553c-0.17,0-0.231,0.077-0.231,0.232v7.137c0,0.154,0.062,0.232,0.231,0.232h0.615c0.154,0,0.215-0.078,0.215-0.232v-5.675
		c0.354-0.276,1.186-0.864,2.323-0.864c0.984,0,1.354,0.48,1.354,1.17v5.369c0,0.154,0.076,0.232,0.231,0.232h0.615
		c0.152,0,0.214-0.078,0.214-0.232v-5.598C336.608,150.151,335.917,149.354,334.486,149.354z"/>
	<path fill="#1D1D1B" d="M341.261,149.354c-2.076,0-2.77,0.797-2.77,1.953v0.262c0,0.168,0.063,0.245,0.216,0.245h0.554
		c0.168,0,0.231-0.077,0.231-0.245v-0.185c0-0.692,0.385-1.152,1.753-1.152c1.369,0,1.738,0.49,1.738,1.183v1.384h-2.646
		c-1.336,0-1.998,0.816-1.998,1.814v0.77c0,1.002,0.69,1.814,2.122,1.814c1.231,0,2.091-0.551,2.538-0.903l0.031,0.551
		c0.015,0.154,0.061,0.232,0.229,0.232h0.557c0.152,0,0.215-0.078,0.215-0.232v-5.537
		C344.031,150.151,343.369,149.354,341.261,149.354z M342.984,155.443c-0.354,0.279-1.168,0.864-2.276,0.864
		c-0.923,0-1.339-0.387-1.339-1.063v-0.49c0-0.679,0.338-1.109,1.17-1.109h2.445V155.443z"/>
	<path fill="#1D1D1B" d="M359.332,146.616h-1.584c-0.23,0-0.354,0.061-0.416,0.215l-2.016,4.769
		c-0.291,0.676-0.447,1.152-0.447,1.187c-0.029-0.064-0.229-0.696-0.443-1.217l-2.092-4.708c-0.078-0.154-0.17-0.245-0.4-0.245
		h-1.508c-0.324,0-0.447,0.138-0.447,0.461v9.539c0,0.319,0.123,0.461,0.447,0.461h1.508c0.322,0,0.43-0.142,0.43-0.461v-4.832
		c0.031,0.125,0.232,0.894,0.4,1.294l0.846,1.952c0.123,0.279,0.277,0.46,0.584,0.46h1.338c0.309,0,0.477-0.154,0.602-0.46
		l0.676-1.677c0.186-0.494,0.477-1.569,0.492-1.616v4.879c0,0.319,0.123,0.461,0.447,0.461h1.584c0.322,0,0.43-0.142,0.43-0.461
		v-9.539C359.761,146.753,359.654,146.616,359.332,146.616z"/>
	<path fill="#1D1D1B" d="M364.83,149.26c-2.322,0-3.523,0.938-3.523,2.402v3.136c0,1.461,1.201,2.398,3.523,2.398
		s3.521-0.938,3.521-2.398v-3.136C368.351,150.198,367.152,149.26,364.83,149.26z M365.89,154.583c0,0.524-0.43,0.692-1.061,0.692
		s-1.061-0.168-1.061-0.692v-2.722c0-0.511,0.43-0.679,1.061-0.679s1.061,0.168,1.061,0.679V154.583z"/>
	<path fill="#1D1D1B" d="M374.525,149.26c-1.215,0-1.953,0.478-2.385,0.833l-0.031-0.262c-0.029-0.322-0.121-0.447-0.445-0.447
		h-1.477c-0.324,0-0.447,0.125-0.447,0.447v6.784c0,0.319,0.123,0.461,0.447,0.461h1.584c0.322,0,0.432-0.142,0.432-0.461v-4.63
		c0.309-0.232,0.938-0.618,1.539-0.618c0.49,0,0.584,0.185,0.584,0.661v4.587c0,0.319,0.137,0.461,0.461,0.461h1.553
		c0.324,0,0.447-0.142,0.447-0.461v-5.215C376.787,150.151,375.923,149.26,374.525,149.26z"/>
	<path fill="#1D1D1B" d="M382.574,155.077h-0.369c-0.631,0-0.984-0.171-0.984-0.675v-3.064h1.246c0.322,0,0.463-0.125,0.463-0.444
		v-1.048c0-0.322-0.141-0.431-0.463-0.431h-1.246v-1.4c0-0.323-0.109-0.461-0.432-0.461h-1.582c-0.324,0-0.447,0.138-0.447,0.461
		v1.4h-0.016l-0.66,0.095c-0.324,0.043-0.447,0.121-0.447,0.443v0.94c0,0.319,0.123,0.444,0.447,0.444h0.676v3.34
		c0,1.616,0.723,2.399,3.045,2.399h0.77c0.324,0,0.463-0.125,0.463-0.447v-1.092C383.037,155.214,382.898,155.077,382.574,155.077z"
		/>
	<path fill="#1D1D1B" d="M387.285,149.26c-2.262,0-3.262,0.863-3.262,2.325v0.182c0,0.322,0.123,0.447,0.445,0.447h1.402
		c0.322,0,0.445-0.125,0.445-0.447v-0.104c0-0.48,0.275-0.635,0.922-0.635s0.877,0.231,0.877,0.709v0.847h-1.875
		c-1.602,0-2.463,0.938-2.463,1.986v0.661c0,1.012,0.709,1.966,2.262,1.966c0.998,0,1.707-0.446,2.152-0.813l0.031,0.231
		c0.047,0.319,0.107,0.461,0.447,0.461h1.414c0.324,0,0.445-0.142,0.445-0.461v-5.03C390.529,150.124,389.607,149.26,387.285,149.26
		z M388.115,154.72c-0.354,0.249-0.893,0.571-1.414,0.571c-0.232,0-0.523-0.047-0.523-0.399v-0.201c0-0.232,0.076-0.478,0.523-0.478
		h1.414V154.72z"/>
	<path fill="#1D1D1B" d="M396.781,149.26c-1.217,0-1.957,0.478-2.385,0.833l-0.033-0.262c-0.029-0.322-0.121-0.447-0.445-0.447
		h-1.477c-0.322,0-0.445,0.125-0.445,0.447v6.784c0,0.319,0.123,0.461,0.445,0.461h1.584c0.324,0,0.432-0.142,0.432-0.461v-4.63
		c0.309-0.232,0.938-0.618,1.539-0.618c0.49,0,0.584,0.185,0.584,0.661v4.587c0,0.319,0.137,0.461,0.461,0.461h1.553
		c0.324,0,0.447-0.142,0.447-0.461v-5.215C399.041,150.151,398.177,149.26,396.781,149.26z"/>
	<path fill="#1D1D1B" d="M405.291,149.26c-1.154,0-1.893,0.431-2.324,0.77v-3.246c0-0.322-0.107-0.46-0.43-0.46h-1.586
		c-0.322,0-0.443,0.138-0.443,0.46v9.832c0,0.319,0.121,0.461,0.443,0.461h1.586c0.322,0,0.43-0.142,0.43-0.461v-4.63
		c0.309-0.232,0.938-0.618,1.539-0.618c0.492,0,0.584,0.185,0.584,0.661v4.587c0,0.319,0.139,0.461,0.461,0.461h1.557
		c0.322,0,0.443-0.142,0.443-0.461v-5.215C407.55,150.151,406.691,149.26,405.291,149.26z"/>
	<path fill="#1D1D1B" d="M412.339,149.26c-2.262,0-3.262,0.863-3.262,2.325v0.182c0,0.322,0.123,0.447,0.445,0.447h1.4
		c0.324,0,0.445-0.125,0.445-0.447v-0.104c0-0.48,0.277-0.635,0.924-0.635c0.648,0,0.877,0.231,0.877,0.709v0.847h-1.875
		c-1.602,0-2.463,0.938-2.463,1.986v0.661c0,1.012,0.709,1.966,2.262,1.966c1,0,1.707-0.446,2.152-0.813l0.033,0.231
		c0.045,0.319,0.105,0.461,0.445,0.461h1.414c0.324,0,0.447-0.142,0.447-0.461v-5.03C415.585,150.124,414.662,149.26,412.339,149.26
		z M413.169,154.72c-0.352,0.249-0.891,0.571-1.414,0.571c-0.23,0-0.523-0.047-0.523-0.399v-0.201c0-0.232,0.076-0.478,0.523-0.478
		h1.414V154.72z"/>
	<path fill="#1D1D1B" d="M272.826,125.864c0,3.961,3.211,7.174,7.172,7.174c3.96,0,7.172-3.213,7.172-7.174l0,0
		c0-1.331,0-2.282,0-2.957c0,0.01,0-0.354,0-1.448c0-0.676,0-1.63,0-2.961c0.018-4.522,3.722-8.215,8.247-8.215h2.152
		c4.536,0,8.247-3.71,8.247-8.246c0-5.642,0-11.282,0-16.922h13.836c3.96,0,7.172-3.212,7.172-7.172s-3.212-7.172-7.172-7.172
		h-13.836V60.257c0-6.283,5.191-11.475,11.476-11.475c3.195,0,3.812,0,7.007,0c4.537,0,8.247,3.709,8.247,8.246v2.154
		c0,4.535,3.712,8.246,8.248,8.246h8.247c3.961,0,7.172-3.212,7.172-7.172s-3.211-7.17-7.172-7.17h-0.029h-8.218
		c-4.536,0-8.248-3.711-8.248-8.248v-2.152c0-4.536-3.71-8.248-8.247-8.248c-3.195,0-3.812,0-7.007,0
		c-14.2,0-25.819,11.618-25.819,25.819c0,13.925,0,27.85,0,41.779c0,3.108-1.744,5.83-4.303,7.234v-14v-0.027v-0.01
		c0-0.198-0.003-0.396-0.008-0.595l-0.004-0.125c-0.004-0.158-0.01-0.316-0.018-0.474l-0.017-0.299l-0.015-0.249
		c-0.908-13.389-12.146-24.067-25.759-24.067c-14.2,0-25.819,11.618-25.819,25.818v0.027v0.667v0.467
		c0,6.311-5.163,11.475-11.475,11.475c-6.311,0-11.476-5.164-11.476-11.475V60.257c0-6.312,5.165-11.475,11.476-11.475
		c6.312,0,11.475,5.163,11.475,11.475v1.055c0,3.96,3.213,7.172,7.173,7.172s7.225-3.216,7.173-7.172l-0.002-0.03v-1.025
		c0-14.198-11.618-25.819-25.818-25.819s-25.819,11.618-25.819,25.819v36.147c0,14.2,11.619,25.819,25.819,25.819
		c4.115,0,8.014-0.978,11.475-2.711c0,0.931,0,1.656,0,2.234c0,0.047,0,0.544,0,1.854c0,0.574,0,1.301,0,2.231v0.03
		c0,3.961,3.212,7.174,7.173,7.174c3.96,0,7.171-3.213,7.171-7.174V99.745l0,0v-4.474c0-6.314,5.164-11.476,11.476-11.476
		c0.089,0,0.177,0,0.265,0.003l0.104,0.003l0.199,0.007l0.059,0.003l0.201,0.013l0.107,0.007l0.154,0.015l0.113,0.01l0.205,0.025
		l0.049,0.003l0.025,0.003c0.082,0.01,0.162,0.023,0.242,0.035l0.018,0.002l0.086,0.017l0.17,0.027l0.101,0.019l0.155,0.03
		l0.119,0.025l0.145,0.03l0.113,0.027l0.141,0.034l0.121,0.032l0.018,0.003l0.223,0.062l0.008,0.002l0.23,0.069l0.01,0.003
		l0.121,0.039l0.124,0.04l0.132,0.045l0.115,0.042l0.117,0.042l0.131,0.05l0.128,0.051l0.09,0.037l0.141,0.059l0.007,0.003
		l0.217,0.094l0.162,0.078l0.063,0.027l0.105,0.054l0.145,0.07l0.104,0.054l0.103,0.054l0.126,0.071l0.127,0.07l0.083,0.047
		l0.156,0.092l0.063,0.037l0.014,0.007l0.215,0.134l0.047,0.03l0.157,0.104l0.099,0.067l0.117,0.081l0.098,0.074l0.096,0.067
		l0.123,0.091l0.064,0.05l0.133,0.104l0.004,0.003l0.182,0.145l0.002,0.003l0.178,0.148l0.008,0.006l0.116,0.104l0.072,0.064
		l0.11,0.101l0.074,0.071l0.109,0.104l0.073,0.07l0.112,0.111l0.035,0.037l0.136,0.138l0.159,0.171l0.126,0.141l0.038,0.044
		l0.109,0.127l0.058,0.067l0.089,0.107l0.072,0.091l0.105,0.134l0.018,0.023l0.125,0.162l0.033,0.047l0.109,0.151l0.133,0.191h0.001
		l0.097,0.145l0.043,0.067l0.09,0.138l0.045,0.07l0.094,0.158l0.022,0.037l0.102,0.175l0.019,0.034
		c0.107,0.188,0.209,0.38,0.305,0.575l0.015,0.03l0.095,0.198l0.006,0.013l0.087,0.191l0.019,0.041l0.078,0.185l0.014,0.037
		c0.145,0.346,0.271,0.706,0.38,1.069l0.015,0.05l0.058,0.202l0.005,0.017l0.059,0.225c0.189,0.75,0.303,1.529,0.335,2.329
		l0.001,0.047l0.004,0.128c0.002,0.077,0.004,0.15,0.004,0.229v0.02v0.027c0,6.312-5.164,11.477-11.476,11.477h-1.743
		c-3.961,0-7.172,3.209-7.172,7.171c0,3.958,3.211,7.17,7.172,7.17h1.743c4.115,0,8.013-0.978,11.476-2.708v7.453V125.864z"/>
	<circle fill="#1D1D1B" cx="280.093" cy="144.527" r="7.172"/>
	<circle fill="#1D1D1B" cx="415.57" cy="115.553" r="7.172"/>
	<path fill="#1D1D1B" d="M415.57,76.858c-3.959,0-7.172,3.212-7.172,7.172l0.002,0.03v6.996c0,4.538-3.711,8.247-8.248,8.247H398
		c-4.537,0-8.246,3.713-8.246,8.25v8v0.145l-0.002,0.01c-0.004,0.074-0.01,0.145-0.014,0.219l-0.006,0.064
		c-0.006,0.07-0.012,0.141-0.02,0.215l-0.006,0.043l-0.004,0.058l-0.014,0.107l-0.008,0.058l-0.012,0.107l-0.01,0.054l-0.016,0.107
		l-0.014,0.104l-0.027,0.157l-0.02,0.111l-0.023,0.114l-0.01,0.05l-0.021,0.107l-0.012,0.055l-0.01,0.054l-0.049,0.211l-0.014,0.051
		l-0.012,0.054c-0.109,0.437-0.244,0.863-0.402,1.28c-1.643,4.335-5.844,7.437-10.734,7.437c-6.313,0-11.475-5.165-11.475-11.476
		v-10.326h11.475c14.197,0,25.818-11.621,25.818-25.821c0-3.208-0.594-6.285-1.676-9.125l-0.02-0.051
		c-0.066-0.171-0.133-0.341-0.203-0.512l-0.01-0.022c-0.07-0.176-0.145-0.349-0.219-0.522l-0.008-0.017
		c-0.076-0.173-0.154-0.346-0.232-0.518l-0.01-0.02c-0.818-1.763-1.828-3.419-3.006-4.941l-0.012-0.019
		c-0.109-0.139-0.219-0.279-0.328-0.417l-0.047-0.056c-0.105-0.129-0.209-0.255-0.316-0.383l-0.066-0.077
		c-0.105-0.126-0.215-0.25-0.324-0.375l-0.051-0.059c-0.113-0.128-0.227-0.252-0.344-0.378l-0.047-0.052
		c-0.119-0.126-0.236-0.252-0.355-0.376l-0.037-0.037c-0.93-0.956-1.932-1.841-2.996-2.648l-0.018-0.015
		c-0.143-0.106-0.283-0.21-0.426-0.313l-0.049-0.035c-0.139-0.101-0.279-0.198-0.42-0.296l-0.063-0.043
		c-0.127-0.087-0.256-0.173-0.383-0.257l-0.129-0.085l-0.367-0.233l-0.131-0.083l-0.365-0.222l-0.156-0.093
		c-0.113-0.067-0.227-0.132-0.342-0.198l-0.197-0.109l-0.316-0.175l-0.225-0.119l-0.305-0.158l-0.23-0.114l-0.318-0.154
		l-0.217-0.103l-0.328-0.151l-0.205-0.091c-0.119-0.052-0.236-0.104-0.355-0.154l-0.166-0.067c-0.129-0.054-0.258-0.107-0.387-0.16
		l-0.006-0.001c-0.182-0.072-0.365-0.141-0.549-0.21l-0.006-0.002c-0.184-0.067-0.365-0.131-0.551-0.195l-0.01-0.003
		c-0.113-0.039-0.227-0.076-0.34-0.112l-0.24-0.078l-0.295-0.09l-0.305-0.091l-0.303-0.084l-0.271-0.076l-0.324-0.081l-0.299-0.074
		l-0.264-0.061l-0.354-0.077l-0.26-0.054l-0.352-0.067l-0.268-0.048l-0.334-0.056l-0.291-0.045c-0.119-0.019-0.24-0.034-0.357-0.05
		l-0.248-0.032c-0.131-0.017-0.262-0.032-0.393-0.045l-0.236-0.025c-0.139-0.013-0.279-0.027-0.418-0.039l-0.215-0.017l-0.385-0.025
		l-0.27-0.017c-0.146-0.007-0.291-0.012-0.438-0.015l-0.188-0.007c-0.215-0.007-0.432-0.008-0.648-0.008h-0.033
		c-14.186,0.017-25.785,11.628-25.785,25.818v11.475h-22.166c-14.201,0-25.818,11.617-25.818,25.821v41.784
		c0,4.532-3.712,8.245-8.248,8.245h-2.152c-4.536,0-8.248,3.71-8.248,8.246v7.281v0.034c0,3.958,3.212,7.171,7.172,7.171
		c3.961,0,7.172-3.213,7.172-7.171v-7.315c0-4.533,3.712-8.246,8.248-8.246h2.153c4.536,0,8.247-3.713,8.247-8.245
		c0-6.993,0-8.263,0-8.451c0-0.014,0-0.023,0-0.027c0-0.188,0-1.458,0-8.45h13.834c3.961,0,7.174-3.213,7.174-7.171
		c0-3.962-3.213-7.174-7.174-7.174h-13.834V116.2c0-6.284,5.191-11.476,11.475-11.476h22.166v10.326
		c0,14.2,11.617,25.819,25.818,25.819c9.342,0,17.563-5.03,22.098-12.513l0.049-0.081l0.061-0.101
		c0.086-0.145,0.17-0.289,0.252-0.434l0.055-0.091c0.08-0.145,0.16-0.292,0.24-0.437l0.064-0.124
		c0.076-0.142,0.152-0.289,0.225-0.434l0.051-0.098c0.076-0.151,0.15-0.306,0.225-0.46l0.049-0.104
		c0.072-0.154,0.145-0.306,0.213-0.461l0.039-0.09c0.072-0.158,0.141-0.319,0.207-0.48l0.039-0.091
		c0.066-0.158,0.131-0.319,0.195-0.484l0.035-0.087c0.064-0.165,0.125-0.33,0.184-0.498l0.029-0.077
		c0.063-0.171,0.123-0.346,0.182-0.521l0.018-0.058c0.061-0.178,0.117-0.353,0.17-0.53l0.027-0.088
		c0.055-0.175,0.104-0.349,0.154-0.523l0.016-0.058c0.051-0.178,0.1-0.359,0.145-0.537l0.021-0.091
		c0.047-0.179,0.09-0.36,0.131-0.541l0.008-0.027l0.002-0.014l0,0c0.045-0.191,0.084-0.383,0.123-0.574l0.01-0.051
		c0.039-0.191,0.076-0.386,0.111-0.577l0.004-0.023l0.002-0.011V119.5c0.035-0.195,0.066-0.396,0.098-0.595l0.002-0.021l0.002-0.01
		c0.031-0.198,0.057-0.4,0.082-0.602l0.004-0.021l0.002-0.007v-0.01c0.025-0.205,0.049-0.41,0.068-0.615v-0.007l0.002-0.003
		c0.02-0.212,0.039-0.42,0.055-0.632v-0.007v-0.003c0.016-0.212,0.029-0.427,0.041-0.642v-0.004c0.01-0.215,0.02-0.43,0.023-0.648
		h-0.012v-0.121v-8c0-4.537,3.711-8.25,8.248-8.25h2.152c4.535,0,8.246-3.709,8.246-8.247v-7.026
		C422.742,80.071,419.531,76.858,415.57,76.858z M366.822,78.903c0-6.311,5.162-11.475,11.475-11.475
		c0.088,0,0.178,0.001,0.264,0.003l0.105,0.003l0.197,0.008l0.061,0.003l0.199,0.012l0.107,0.008l0.154,0.014l0.113,0.012
		l0.207,0.023l0.049,0.005l0.025,0.003c0.08,0.01,0.16,0.022,0.24,0.035l0.018,0.002l0.086,0.015l0.172,0.028l0.1,0.019l0.154,0.029
		l0.119,0.025l0.145,0.032l0.113,0.025l0.141,0.035l0.123,0.032l0.016,0.003l0.225,0.061l0.008,0.003l0.227,0.067l0.012,0.003
		l0.121,0.039l0.125,0.042l0.133,0.045l0.115,0.041l0.115,0.042l0.133,0.05l0.127,0.05l0.088,0.037l0.143,0.059l0.008,0.003
		l0.215,0.096l0.164,0.076l0.061,0.029l0.107,0.052l0.143,0.072l0.105,0.054l0.102,0.054l0.127,0.069l0.127,0.072l0.082,0.047
		l0.158,0.092l0.063,0.037l0.012,0.008l0.217,0.134l0.045,0.03l0.158,0.104l0.098,0.067l0.119,0.081l0.098,0.071l0.094,0.069
		l0.123,0.092l0.064,0.049l0.133,0.104l0.006,0.003l0.18,0.146l0.002,0.002l0.18,0.149l0.006,0.007l0.115,0.103l0.072,0.064
		l0.113,0.102l0.072,0.069l0.109,0.103l0.074,0.072l0.113,0.111l0.033,0.036l0.137,0.141l0.16,0.171l0.125,0.141l0.037,0.04
		l0.109,0.129l0.057,0.069l0.09,0.108l0.072,0.089l0.105,0.133l0.02,0.025l0.123,0.163l0.033,0.045l0.109,0.149l0.133,0.193l0,0
		l0.098,0.145l0.045,0.067l0.088,0.14l0.045,0.071l0.096,0.158l0.023,0.037l0.1,0.173l0.02,0.032
		c0.105,0.19,0.207,0.382,0.303,0.578l0.016,0.029l0.094,0.196l0.006,0.015l0.088,0.19l0.018,0.043l0.08,0.185l0.012,0.035
		c0.145,0.348,0.273,0.706,0.381,1.07l0.016,0.049l0.057,0.202l0.004,0.019l0.061,0.222c0.223,0.89,0.342,1.821,0.342,2.779
		c0,6.312-5.162,11.475-11.475,11.475h-11.475V78.903z"/>
	<path fill="#1D1D1B" d="M379.201,48.479c0.738,1.092,1.785,1.366,2.375,1.334l13.748-0.007c1.377,0.045,1.881-0.665,1.082-1.84
		l-3.535-5.21c-0.742-1.092-1.732-1.28-2.998-1.157l-12.355,1.147c-1.492,0.153-1.627,0.857-0.943,1.867L379.201,48.479z"/>
</g>
<g>
	<g>
		<g>
			<defs>
				<rect id="SVGID_1_" x="35.467" y="74.626" width="129.239" height="62.722"/>
			</defs>
			<clipPath id="SVGID_2_">
				<use xlink:href="#SVGID_1_"  overflow="visible"/>
			</clipPath>
			<path clip-path="url(#SVGID_2_)" fill="#1D1D1B" d="M94.824,137.348c-32.729,0-59.356-26.627-59.356-59.358v-3.364h118.712v3.364
				c0,0.584-0.012,1.18-0.034,1.808c6.486,3.644,10.562,10.495,10.562,18.054c0,11.424-9.295,20.721-20.721,20.721
				c-1.765,0-3.514-0.229-5.229-0.682C127.5,130.285,111.617,137.348,94.824,137.348"/>
		</g>
	</g>
	<path fill="#FFFFFF" d="M150.668,81.836c0.087-1.271,0.146-2.551,0.146-3.845H38.832c0,30.924,25.067,55.99,55.991,55.99
		c17.206,0,32.591-7.767,42.862-19.979c1.955,0.768,4.077,1.203,6.301,1.203c9.571,0,17.356-7.787,17.356-17.354
		C161.342,90.648,156.93,84.459,150.668,81.836 M143.986,105.71c-0.17,0-0.338-0.016-0.507-0.024
		c2.444-4.284,4.35-8.917,5.598-13.813c1.691,1.444,2.77,3.586,2.77,5.979C151.846,102.185,148.321,105.71,143.986,105.71"/>
	<path fill="#E3E3E2" d="M55.381,81.355H42.303c1.741,27.458,24.632,49.263,52.521,49.263c2.2,0,4.38-0.151,6.534-0.423
		C76.512,127.102,56.984,106.629,55.381,81.355"/>
	<path fill="#1D1D1B" d="M60.702,63.659V43.273c0-5.102,1.644-9.409,4.93-12.917c3.286-3.505,7.729-5.63,13.319-6.365v7.212
		c-2.941,0.393-5.26,1.655-6.953,3.789c-1.693,2.135-2.538,4.846-2.538,8.133v1.251h9.346v19.282H60.702z M91.042,63.659V43.273
		c0-5.102,1.656-9.409,4.969-12.917c3.31-3.505,7.737-5.63,13.283-6.365v7.212c-2.944,0.393-5.263,1.655-6.955,3.789
		c-1.694,2.135-2.538,4.846-2.538,8.133v1.251h9.346v19.282H91.042z"/>
</g>
<g>
</g>
<g>
</g>
<g>
</g>
<g>
</g>
<g>
</g>
<g>
</g>
<g>
</g>
<g>
</g>
<g>
</g>
<g>
</g>
<g>
</g>
<g>
</g>
<g>
</g>
<g>
</g>
<g>
</g>
</svg>
